<?xml version="1.0" encoding="utf-8"?>
<!-- Generator: Adobe Illustrator 25.2.0, SVG Export Plug-In . SVG Version: 6.00 Build 0)  -->
<svg version="1.1" id="Layer_1" xmlns="http://www.w3.org/2000/svg" xmlns:xlink="http://www.w3.org/1999/xlink" x="0px" y="0px"
	 viewBox="0 0 14 14" style="enable-background:new 0 0 14 14;" xml:space="preserve">
<style type="text/css">
	.st0{fill:none;}
	.st1{fill:#163266;}
</style>
<rect class="st0" width="14" height="14"/>
<g>
	<g>
		<polygon class="st1" points="13.71,10.91 13.71,3.09 9.41,7 		"/>
		<polygon class="st1" points="0.29,3.09 0.29,10.91 4.59,7 		"/>
		<path class="st1" d="M8.57,7.77C8.14,8.16,7.58,8.37,7,8.37c-0.58,0-1.14-0.22-1.57-0.61L5.18,7.54l-4.26,3.88h12.16L8.82,7.54
			L8.57,7.77z"/>
		<path class="st1" d="M13.02,2.64l-4.2,3.82L8.53,6.73L8.24,7l-0.2,0.18c-0.59,0.54-1.48,0.54-2.08,0L5.76,7L5.47,6.73L5.18,6.46
			l-4.2-3.82H13.02z"/>
		<polygon class="st1" points="13.08,2.59 13.02,2.64 0.98,2.64 0.92,2.59 		"/>
	</g>
</g>
</svg>
