<svg id="Layer_1" data-name="Layer 1" xmlns="http://www.w3.org/2000/svg" viewBox="0 0 14 14"><defs><style>.cls-1{fill:none;}.cls-2{fill:#fff;}</style></defs><rect class="cls-1" width="14" height="14"/><polygon class="cls-2" points="13.71 10.91 13.71 3.09 9.41 7 13.71 10.91"/><polygon class="cls-2" points="0.29 3.09 0.29 10.91 4.59 7 0.29 3.09"/><path class="cls-2" d="M8.57,7.77a2.35,2.35,0,0,1-3.14,0l-.25-.23L.92,11.41H13.08L8.82,7.54Z"/><path class="cls-2" d="M13,2.64,8.82,6.46l-.29.27L8.24,7,8,7.18A1.54,1.54,0,0,1,6,7.18L5.76,7l-.29-.27-.29-.27L1,2.64Z"/><polygon class="cls-2" points="13.08 2.59 13.02 2.64 0.98 2.64 0.92 2.59 13.08 2.59"/></svg>